<?xml version="1.0" encoding="utf-8"?>
<!-- Generator: Adobe Illustrator 26.1.0, SVG Export Plug-In . SVG Version: 6.00 Build 0)  -->
<svg version="1.1" id="Layer_1" xmlns="http://www.w3.org/2000/svg" xmlns:xlink="http://www.w3.org/1999/xlink" x="0px" y="0px"
	 viewBox="0 0 448.8 444.8" style="enable-background:new 0 0 448.8 444.8;" xml:space="preserve">
<style type="text/css">
	.st0{display:none;fill:#414042;}
	.st1{fill:#939598;}
	.st2{fill:none;stroke:#58595B;stroke-width:10;stroke-miterlimit:10;}
</style>
<rect x="0.4" y="0.1" class="st0" width="447.6" height="444.3"/>
<path class="st1" d="M118.2,254.3c3.5,0.2,6.5,0.1,9.4,0.7c3.6,0.7,4.3,2.9,1.9,5.6c-1.4,1.5-3.2,2.9-5,3.9
	c-10.2,5.8-13.7,8.5-25.6,9.3c1.3,0.4-9.5,1.3-10.4,1.3c-2.7-0.2-5.3-0.2-7.4-1.1c-3.2-2.9,3.1-6.2,4.7-7.5c2-1.6,2.3-3,1.6-5.3
	c-6.4-18.5-10.4-37.5-11.5-57c-1-17.7,0.6-35.2,4-52.5c1-5.3,4.2-9.1,10.5-9.7c2.6-0.2,5.1-1,7.6-1.5c7.9-1.4,12.6,2.4,12.5,9.9
	c-0.1,21.3-0.3,42.7,0.2,64C111.1,227.8,113.2,241.3,118.2,254.3z"/>
<path class="st1" d="M342.2,180.1c0-10.8-0.4-19.6-0.5-30.4c-0.1-6.7,4.8-10.8,11.9-9.5c2.7,0.5,5.3,1,8,1.6
	c6.9,1.4,9.8,4.2,11.1,10.6c7.1,35.8,4.9,71.1-6.9,105.8c-1.3,3.9-0.7,7.3,3.7,9.9c1.1,0.6,3.2,2.7,2.3,4.2
	c-0.7,1.2-4.7,1.6-6.1,1.7c-4.6,0-9.3,0-13.8-0.8c-9.2-1.6-18-4.5-25.6-9.7c-2.2-1.5-5.8-3.9-4.8-5.5c-0.2-1.3,4.8-2.3,7.3-2.1
	c4,0.3,5.7-2.3,6.7-5.7c5.1-16.3,6.1-33.1,6.8-49.9c0.3-6,0-12.1,0-18.1C342.5,183.7,342.4,180.1,342.2,180.1z"/>
<polygon class="st1" points="126.8,294.7 106.8,302.1 94.7,266.9 115.4,260.8 "/>
<polygon class="st1" points="343.4,302.9 323.2,295.6 338.1,256.4 358.5,263.3 "/>
<path class="st1" d="M254.4,375.3c6.2,5.5,21.9,19.7,38.1,29l46.6-18.4c6-3.2,50-34.7,44.4-44.2l-11.1-14.7
	c-10.4-10.2-23-17.6-36.8-22.8c-12.8-4.8-29.8-10.6-42.6-15.4c-16.1,21.7-45.3,46.6-63.8,60.6"/>
<path class="st1" d="M159.7,286.6c-2.8,1.2-5.7,2.3-8.6,3.4c-13.1,4.9-26.5,9.2-39.6,14.2c-14.3,5.5-27.3,12.9-37.9,23.8
	c-3.4,3.5-6.6,7.3-8.1,12c-0.7,2.2,36.4,59.5,124,82.4l87.9-8.9C238.9,402.1,166.4,299.5,159.7,286.6z"/>
<circle class="st2" cx="222.8" cy="221.8" r="200.2"/>
<path class="st1" d="M264.7,266.1c-0.4-8.6-0.4-17.2-0.5-25.8c0-0.8,0.6-1.6,1.1-2.3c2.4-3.5,7.8-9.3,8.9-14.3l1-3.2
	c-8.1,3.4-16.8,5.9-26,7.6c-2.8,0.5-5.6,1.1-8.4,1.3c-1.9,0.2-3,0.8-4,2.4c-3,4.8-9.1,6.8-14.7,5.3c-5.6-1.5-9.4-6.3-9.3-12
	c0-5.6,3.8-10.4,9.6-11.8c5.3-1.2,9.8,0.1,13.5,3.9c0.6,0.6,1.8,1.4,2.6,1.3c12.2-1.6,24.2-4.2,35.3-9.5c2.1-1,4-2.1,6-3.2l3.4-11.1
	c0.5-3.2,0.4-6.3,2.9-8.9c1.4-1.5,2.3-3.5,2.8-5.4c1.4-5.3,2.7-10.6,3.7-16c1-5.9,0.5-11.7-3.1-17c-0.3-0.4-0.2-1.1-0.2-1.6
	c0-2,0-3.9,0.1-5.9c0.4-9,0.6-18-1.6-26.9c-4-15.4-12.1-28.1-27-36.2c-8.3-4.5-17.3-6.8-26.7-7.6c-14.8-1.2-29.3-0.5-43,5.6
	c-20.8,9.4-30.2,26.1-32.5,46.8c-0.8,7.5-0.1,15.2-0.2,22.8c0,1.5-0.7,3-1.1,4.4c-0.7,2.3-2,4.6-2.2,6.9c-0.8,9.8,0.6,19.4,5.5,28
	c2.5,4.4,4.3,8.6,4.3,13.6c0,0.6,0.1,1.2,0.2,1.9c0.9,9.3,3.1,18.2,8.7,26.2c2.9,4.2,5.8,8.4,8.7,12.6c0.5,0.8,1.1,1.8,1.1,2.8
	c0.1,6.9,0.1,13.8,0.1,20.7c0,6.6-2.3,12.1-6.7,16.2c10.1,14.4,24,37,41.6,59c17.1-14.2,40-33.1,59.1-55.1c-1.1-0.6-2.2-1.2-3.3-1.8
	C268.6,276.9,265,272.2,264.7,266.1z M179.1,149c-2.9-4.2-2.6-8.4,0.7-12.4c3.4-4,8.4-5.6,14.4-5.6c10.1,0,20.1,0,30.2,0
	c0,0,0,0,0,0c10.1,0,20.1-0.1,30.2,0c8.2,0.1,14.6,4.3,15.9,10.2c1.2,5.5-2.8,11.2-9.7,13.2c-2.1,0.6-4.5,0.9-6.7,1
	c-20.1,0.1-40.2,0-60.4,0C187.3,155.5,182.2,153.4,179.1,149z"/>
<path class="st1" d="M143.7,142.3c-0.4-0.7-1.1-1.5-1.1-2.2c0.1-3,0.1-6,0.2-8.9H131c-0.2,3.3-0.2,6.7,0,10.2
	c-8,1.5-13.5,7.1-13.5,14.6c0.1,9.1,0.5,18.2,1.5,27.2c0.9,8.4,7.8,13.3,16.7,13.1c2.2-0.1,4.3-0.2,6.5-0.4c4.1-0.3,6.3-2.4,6.1-6.2
	c-0.8-14.4-1.6-28.8-2.5-43.2C145.7,144.9,144.4,143.6,143.7,142.3z"/>
<g>
	<path class="st1" d="M286.7,88.6c10,12.2,15,25.9,16.1,40.8h11.7c-1.3-20.3-9-38.5-24.4-54.1c-18.3-18.5-41.1-27.8-67.9-27.8
		c-22.7,0.1-42.8,7.2-59.7,21.3C143,85,133,104.9,131.2,128H143c0.1-1.8,0.3-3.5,0.6-5.3c6.2-39.2,43.5-67,85.5-63.9
		C252.9,60.6,272.2,70.8,286.7,88.6z"/>
	<path class="st1" d="M314.6,141.1c0.2-2.9,0.2-5.8,0.1-8.6h-11.7c0.1,1.9,0.1,3.9,0,5.8c-0.1,1.7,0,3.3-1.8,4.5
		c-0.9,0.7-1.5,2.3-1.5,3.5c-0.9,14.5-1.7,29-2.6,43.4c-0.1,1.1-0.5,2.3-1.3,3.1c-4.7,5-10,9.3-15.9,12.8l-4.6,14.8
		c12.2-5.2,23-12.7,32-23.3c0.5-0.6,1.8-1,2.7-1c3,0.1,5.8-0.2,8.4-1.7c5-3,7.7-7.4,8.1-12.8c0.7-7.7,1.1-15.3,1.4-23
		C328.4,149.6,324,143.8,314.6,141.1z"/>
</g>
</svg>
